<svg xmlns="http://www.w3.org/2000/svg" viewBox="0 0 609.43 609.43"><defs><style>.cls-1{opacity:0;}</style></defs><title>Asset 5</title><g id="Layer_2" data-name="Layer 2"><g id="Layer_1-2" data-name="Layer 1"><path d="M257.26,207.88c-13.54-10-29.88-14.11-44.9-21a72,72,0,0,1-28.7-23.32c-5.47-7.51-6.93-17.08-4.9-26.29,2.08-9.47,4.37-19.07,12.22-26.1,2.36-2.12,1.85-5.87,2.24-9C194.77,90.07,199,78.79,204.53,68a10.65,10.65,0,0,1,4.87-4.52c.31,9.87-6.08,18.39-4.23,28.56,3.84-3.6,5.64-8.48,10.25-11.72.87,5.84.25,10.89-2.27,15.7-2.92,5.57-6.24,10.89-9,16.58-5,10.26-4.13,21-4.07,31.71,0,3.06-.14,6.39,1.72,9.21,1.4,2.14,2.31,5.62,5.45,4.84,2.93-.72,2.94-4,3-6.73.06-3.82.32-7.64.42-11.46.23-8.09,2.9-15.68,5.26-23.24C222,97.45,227.31,77.74,236,59.21a20.37,20.37,0,0,1,5.2-7.16c.52-.43,1-1.51,2-.85.82.54.68,1.32.47,2.2-1.2,5.18-2.06,10.45-3.55,15.54a217.94,217.94,0,0,0-6.05,27.2c-1.73,11-6.23,21.28-8.88,32.08-2.73,11.15-4.06,22.28-2,33.56,1.35,7.27,7.47,11.06,13.08,14.81,2,1.33,4-.09,5.23-2.35,2.33-4.29,2.32-9,2.58-13.61.28-5,0-10,0-15,0-2.89,0-6,4-2.25,2.06,1.92,3.18.34,4.07-1.53q6.28-13.25,11.24-27a75.69,75.69,0,0,1,12.24-22.65c-2,8.61-4.08,17.2-5.93,25.84-3.1,14.5-9.34,28-13.13,42.28-1.89,7.11-2.94,14.31-1.81,21.72.32,2.11.9,3.81,2.72,5,7.19,4.77,14.35,9.59,22.76,12.06,6,1.76,7.79.72,8.92-5.43,2.32-12.57,2.91-25.43,6.33-37.81.95-3.47,1.66-7.25,6.48-8.38-1.3,14.06-2.42,27.91-3.91,41.71-1.05,9.81-.57,19.64-1,29.45-.23,4.72,4.07,5.48,7.37,5.51,8.14.09,16.3-.33,24.43-.85,7.38-.47,10.67-6.88,15.06-11.38,5.2-5.34,5.78-11.94,4.89-19.37a167.68,167.68,0,0,1-1-33.37c.52-6.49-.08-13,.92-19.44.42-2.63.05-6.85,3.37-7,3.79-.15,2.41,4.2,2.64,6.4,1.28,12.57,1,25.26,2.56,37.83.83,6.79,6.76,13.75,12.66,15.05a10.19,10.19,0,0,0,5.84-.56c19.28-7,36-17.93,51.17-31.79,8.36-7.64,9.18-20.85-1.33-29.57C409.56,116.78,392.52,105.5,373.25,97c-18.17-8-36.31-16.44-52.86-27.63-5.14-3.47-11.59-6.07-13.43-14.58,34.26,12.38,67.74,24.45,101.22,38.1-2.86-12.51-11.7-22.83-8.69-36.85,11.42,16.3,18.87,34,30,50.43,1.52-4,.44-7-.36-9.8A91,91,0,0,0,403.5,54.27c-10.1-9.46-20.75-18.79-26.64-31.91-.26-.58-.53-1.15-1.1-2.41,5.17,1.39,8.55,4.48,12.18,7.14,5.5,4,11,8.08,16.53,12,8.65,6.19,8.7,6.17,19.19,2.51-1.39,10.78,4.64,18.93,8.49,28,10.28,24.38,19.26,49.29,17.05,76.54-1.36,16.88-11.65,28.54-24.45,37.49-14.61,10.22-29.89,19.64-46.74,26.21-8.15,3.18-14.14,9.8-20.51,15.65-2.33,2.14-4.76,4.18-7,6.42-1,1-3,1.82-2.27,3.31.53,1,2.55,1.81,3.89,1.8,4.24,0,8.47.23,11.95-3.4a68.33,68.33,0,0,1,39-20.44c4.5-.76,8.81-2.83,13.09-4.59,2.26-.93,4.63-2,6.52-.29s.23,3.82-.52,5.87c-2.57,7.09-2.73,14.68-3.67,22.05-2.15,16.78-12.55,26.93-26.36,34.46-5.36,2.93-11.07,5.45-17.23,6.22-3.16.4-2.88,2.68-3.28,4.65-1.78,8.87.59,17.34,2,26,4,24.47,7.16,49,5,74-1.05,11.93-1.32,23.92-2.11,35.87a7.29,7.29,0,0,0,2.42,6.18c5.82,5.71,8.66,12.68,9.35,20.82a159.05,159.05,0,0,1-5.92,60.12,55.24,55.24,0,0,1-7.23,15.17c-7.16,10.59-13.76,21.55-21.79,31.53-.81,1-2,2.38-1.82,3.43.7,5.51-2.27,5.78-6.72,6.16-8.6.74-16.48,3.64-22.17,10.85-3.41,4.31-7.15,8.35-10.78,12.47-4.58,5.21-9.18,5.26-13.9.06a114.18,114.18,0,0,1-9.06-10.64c-6.54-9.27-16-12.53-26.62-13.41-2.21-.18-3.56-.55-3.56-2.81,0-4.17-2.23-7.38-4.71-10.17-8.59-9.64-14.2-21.26-21.39-31.81-5.49-8.07-6.25-18.06-8.41-27.43-3.84-16.64-3.08-33.39-.79-50,1.07-7.84,5.8-14.88,12.73-18.2,22-10.5,32.55-28.87,38-51.27,1.86-7.57,3.75-15.12,2.35-23.11-.46-2.62-1.39-3.21-3.76-3.25-7-.13-14-.36-20.79-2.22-4.24-1.15-6.94-3.49-7.78-8s-4.75-6.68-7.2-10c-2-2.67-4.48-5-5.5-8.26-1.89-6,.29-11,5.41-15.12,8.59-6.83,17.34-13.49,25.29-21.09,5.11-4.88,3.5-12.32-3-14.76-18.75-7-29-21.85-35.87-39.6-2.6-6.7-3.39-13.85-4.85-20.83-1-4.53,1.2-5.53,5-5.24,9.84.75,18.59,4.62,27.09,9.28,1.73.94,3.59,1.67,5.38,2.49,8.31,2.42,13.76,8.36,18.56,15.09,1.12,1.58,1.71,3.6,4.42,5.07-1.62-5.23-3.46-9.14-7.39-12.1C267,213.51,261.31,212,257.26,207.88Z"/><rect class="cls-1" width="609.43" height="609.43"/></g></g></svg>